<mxfile host="app.diagrams.net" modified="2024-06-18T05:58:27.178Z" agent="Mozilla/5.0 (X11; Linux x86_64; rv:127.0) Gecko/20100101 Firefox/127.0" etag="OcBWx_gBkPiI27Uj_PSM" version="24.5.4" type="device" pages="2">
  <diagram name="Azure AKS" id="co6v03HZWkPBrPWV79AA">
    <mxGraphModel dx="2152" dy="708" grid="1" gridSize="10" guides="1" tooltips="1" connect="1" arrows="1" fold="1" page="1" pageScale="1" pageWidth="1169" pageHeight="827" math="0" shadow="0">
      <root>
        <mxCell id="HhEyFnEYHEFTAz3jUqiK-0" />
        <mxCell id="HhEyFnEYHEFTAz3jUqiK-1" parent="HhEyFnEYHEFTAz3jUqiK-0" />
        <mxCell id="dAyneqLOpH0L9eFf7bT2-36" value="Azure Kubernetes Service" style="rounded=1;whiteSpace=wrap;html=1;absoluteArcSize=1;arcSize=20;verticalAlign=top;align=left;spacingLeft=39;" vertex="1" parent="HhEyFnEYHEFTAz3jUqiK-1">
          <mxGeometry x="100" y="910" width="570" height="480" as="geometry" />
        </mxCell>
        <mxCell id="dAyneqLOpH0L9eFf7bT2-32" value="Actor service pod" style="rounded=1;whiteSpace=wrap;html=1;verticalAlign=top;align=left;absoluteArcSize=1;arcSize=20;" vertex="1" parent="HhEyFnEYHEFTAz3jUqiK-1">
          <mxGeometry x="110" y="950" width="550" height="430" as="geometry" />
        </mxCell>
        <mxCell id="HhEyFnEYHEFTAz3jUqiK-2" value="Actor service" style="rounded=1;whiteSpace=wrap;html=1;arcSize=20;verticalAlign=top;align=left;spacingTop=0;spacingLeft=0;absoluteArcSize=1;" vertex="1" parent="HhEyFnEYHEFTAz3jUqiK-1">
          <mxGeometry x="120" y="980" width="530" height="390" as="geometry" />
        </mxCell>
        <mxCell id="kkG6p5Vv7rluTgTEHCD1-2" value="&lt;div&gt;REST server implementation&lt;br&gt;&lt;/div&gt;" style="rounded=1;whiteSpace=wrap;html=1;verticalAlign=top;arcSize=20;absoluteArcSize=1;" vertex="1" parent="HhEyFnEYHEFTAz3jUqiK-1">
          <mxGeometry x="130" y="1010" width="220" height="130" as="geometry" />
        </mxCell>
        <mxCell id="HhEyFnEYHEFTAz3jUqiK-3" value="&lt;div&gt;Core application&lt;/div&gt;" style="rounded=1;whiteSpace=wrap;html=1;align=center;verticalAlign=top;arcSize=20;absoluteArcSize=1;" vertex="1" parent="HhEyFnEYHEFTAz3jUqiK-1">
          <mxGeometry x="420" y="1160" width="220" height="120" as="geometry" />
        </mxCell>
        <mxCell id="HhEyFnEYHEFTAz3jUqiK-4" value="&lt;div&gt;Azure specific implementation&lt;/div&gt;" style="rounded=1;whiteSpace=wrap;html=1;verticalAlign=top;arcSize=20;glass=0;shadow=0;absoluteArcSize=1;" vertex="1" parent="HhEyFnEYHEFTAz3jUqiK-1">
          <mxGeometry x="130" y="1150" width="190" height="210" as="geometry" />
        </mxCell>
        <mxCell id="HhEyFnEYHEFTAz3jUqiK-5" value="ActorRepository" style="shape=providedRequiredInterface;html=1;verticalLabelPosition=bottom;sketch=0;flipH=0;" vertex="1" parent="HhEyFnEYHEFTAz3jUqiK-1">
          <mxGeometry x="360" y="1209" width="20" height="20" as="geometry" />
        </mxCell>
        <mxCell id="HhEyFnEYHEFTAz3jUqiK-14" style="edgeStyle=orthogonalEdgeStyle;rounded=0;orthogonalLoop=1;jettySize=auto;html=1;exitX=0.136;exitY=0.008;exitDx=0;exitDy=0;entryX=0.996;entryY=0.688;entryDx=0;entryDy=0;endArrow=diamondThin;endFill=0;endSize=24;entryPerimeter=0;exitPerimeter=0;" edge="1" parent="HhEyFnEYHEFTAz3jUqiK-1" source="dAyneqLOpH0L9eFf7bT2-10" target="4cmHb2sFktC8Co_0Q9ZH-0">
          <mxGeometry relative="1" as="geometry">
            <mxPoint x="510" y="1042.5" as="sourcePoint" />
            <mxPoint x="340" y="1012.5" as="targetPoint" />
          </mxGeometry>
        </mxCell>
        <mxCell id="kkG6p5Vv7rluTgTEHCD1-0" value="CosmosDB" style="image;aspect=fixed;html=1;points=[];align=center;fontSize=12;image=img/lib/azure2/databases/Azure_Cosmos_DB.svg;" vertex="1" parent="HhEyFnEYHEFTAz3jUqiK-1">
          <mxGeometry x="-20" y="1197" width="64" height="64" as="geometry" />
        </mxCell>
        <mxCell id="4cmHb2sFktC8Co_0Q9ZH-0" value="&lt;p style=&quot;margin:0px;margin-top:6px;text-align:center;&quot;&gt;&lt;b&gt;ActorController&lt;br&gt;&lt;/b&gt;&lt;/p&gt;&lt;hr size=&quot;1&quot; style=&quot;border-style:solid;&quot;&gt;&lt;p style=&quot;margin:0px;margin-left:8px;&quot;&gt;GET /api/actors/{id}/calories&lt;/p&gt;&lt;p style=&quot;margin:0px;margin-left:8px;&quot;&gt;&lt;br&gt;&lt;/p&gt;" style="align=left;overflow=fill;html=1;dropTarget=0;whiteSpace=wrap;" vertex="1" parent="HhEyFnEYHEFTAz3jUqiK-1">
          <mxGeometry x="140" y="1040" width="180" height="90" as="geometry" />
        </mxCell>
        <mxCell id="4cmHb2sFktC8Co_0Q9ZH-1" value="" style="shape=component;jettyWidth=8;jettyHeight=4;" vertex="1" parent="4cmHb2sFktC8Co_0Q9ZH-0">
          <mxGeometry x="1" width="20" height="20" relative="1" as="geometry">
            <mxPoint x="-24" y="4" as="offset" />
          </mxGeometry>
        </mxCell>
        <mxCell id="dAyneqLOpH0L9eFf7bT2-0" value="&lt;b&gt;CosmosDbActorRepository&lt;/b&gt;" style="swimlane;fontStyle=0;align=center;verticalAlign=top;childLayout=stackLayout;horizontal=1;startSize=30;horizontalStack=0;resizeParent=1;resizeParentMax=0;resizeLast=0;collapsible=0;marginBottom=0;html=1;whiteSpace=wrap;" vertex="1" parent="HhEyFnEYHEFTAz3jUqiK-1">
          <mxGeometry x="140" y="1200" width="150" height="58" as="geometry" />
        </mxCell>
        <mxCell id="dAyneqLOpH0L9eFf7bT2-5" value="" style="line;strokeWidth=1;fillColor=none;align=left;verticalAlign=middle;spacingTop=-1;spacingLeft=3;spacingRight=3;rotatable=0;labelPosition=right;points=[];portConstraint=eastwest;" vertex="1" parent="dAyneqLOpH0L9eFf7bT2-0">
          <mxGeometry y="30" width="150" height="8" as="geometry" />
        </mxCell>
        <mxCell id="dAyneqLOpH0L9eFf7bT2-7" value="&lt;div&gt;+ getById(ActorId): Actor&lt;br&gt;&lt;/div&gt;" style="text;html=1;strokeColor=none;fillColor=none;align=left;verticalAlign=middle;spacingLeft=4;spacingRight=4;overflow=hidden;rotatable=0;points=[[0,0.5],[1,0.5]];portConstraint=eastwest;whiteSpace=wrap;" vertex="1" parent="dAyneqLOpH0L9eFf7bT2-0">
          <mxGeometry y="38" width="150" height="20" as="geometry" />
        </mxCell>
        <mxCell id="dAyneqLOpH0L9eFf7bT2-10" value="ActorService" style="swimlane;fontStyle=0;align=center;verticalAlign=top;childLayout=stackLayout;horizontal=1;startSize=30;horizontalStack=0;resizeParent=1;resizeParentMax=0;resizeLast=0;collapsible=0;marginBottom=0;html=1;whiteSpace=wrap;" vertex="1" parent="HhEyFnEYHEFTAz3jUqiK-1">
          <mxGeometry x="435" y="1200" width="190" height="58" as="geometry" />
        </mxCell>
        <mxCell id="dAyneqLOpH0L9eFf7bT2-15" value="" style="line;strokeWidth=1;fillColor=none;align=left;verticalAlign=middle;spacingTop=-1;spacingLeft=3;spacingRight=3;rotatable=0;labelPosition=right;points=[];portConstraint=eastwest;" vertex="1" parent="dAyneqLOpH0L9eFf7bT2-10">
          <mxGeometry y="30" width="190" height="8" as="geometry" />
        </mxCell>
        <mxCell id="dAyneqLOpH0L9eFf7bT2-17" value="calculateBaconNumber(ActorId)" style="text;html=1;strokeColor=none;fillColor=none;align=left;verticalAlign=middle;spacingLeft=4;spacingRight=4;overflow=hidden;rotatable=0;points=[[0,0.5],[1,0.5]];portConstraint=eastwest;whiteSpace=wrap;" vertex="1" parent="dAyneqLOpH0L9eFf7bT2-10">
          <mxGeometry y="38" width="190" height="20" as="geometry" />
        </mxCell>
        <mxCell id="dAyneqLOpH0L9eFf7bT2-18" value="&lt;b&gt;CosmosDbMovieRepository&lt;/b&gt;" style="swimlane;fontStyle=0;align=center;verticalAlign=top;childLayout=stackLayout;horizontal=1;startSize=30;horizontalStack=0;resizeParent=1;resizeParentMax=0;resizeLast=0;collapsible=0;marginBottom=0;html=1;whiteSpace=wrap;" vertex="1" parent="HhEyFnEYHEFTAz3jUqiK-1">
          <mxGeometry x="140" y="1270" width="170" height="78" as="geometry" />
        </mxCell>
        <mxCell id="dAyneqLOpH0L9eFf7bT2-19" value="" style="line;strokeWidth=1;fillColor=none;align=left;verticalAlign=middle;spacingTop=-1;spacingLeft=3;spacingRight=3;rotatable=0;labelPosition=right;points=[];portConstraint=eastwest;" vertex="1" parent="dAyneqLOpH0L9eFf7bT2-18">
          <mxGeometry y="30" width="170" height="8" as="geometry" />
        </mxCell>
        <mxCell id="dAyneqLOpH0L9eFf7bT2-20" value="&lt;div&gt;+ getByActor(ActorId): Movie[]&lt;br&gt;&lt;/div&gt;" style="text;html=1;strokeColor=none;fillColor=none;align=left;verticalAlign=middle;spacingLeft=4;spacingRight=4;overflow=hidden;rotatable=0;points=[[0,0.5],[1,0.5]];portConstraint=eastwest;whiteSpace=wrap;" vertex="1" parent="dAyneqLOpH0L9eFf7bT2-18">
          <mxGeometry y="38" width="170" height="20" as="geometry" />
        </mxCell>
        <mxCell id="dAyneqLOpH0L9eFf7bT2-21" value="&lt;div&gt;+ save(User)&lt;br&gt;&lt;/div&gt;" style="text;html=1;strokeColor=none;fillColor=none;align=left;verticalAlign=middle;spacingLeft=4;spacingRight=4;overflow=hidden;rotatable=0;points=[[0,0.5],[1,0.5]];portConstraint=eastwest;whiteSpace=wrap;" vertex="1" parent="dAyneqLOpH0L9eFf7bT2-18">
          <mxGeometry y="58" width="170" height="20" as="geometry" />
        </mxCell>
        <mxCell id="dAyneqLOpH0L9eFf7bT2-22" style="edgeStyle=orthogonalEdgeStyle;rounded=0;orthogonalLoop=1;jettySize=auto;html=1;exitX=-0.004;exitY=0.333;exitDx=0;exitDy=0;entryX=1;entryY=0.5;entryDx=0;entryDy=0;entryPerimeter=0;endArrow=none;endFill=0;exitPerimeter=0;" edge="1" parent="HhEyFnEYHEFTAz3jUqiK-1" source="dAyneqLOpH0L9eFf7bT2-10" target="HhEyFnEYHEFTAz3jUqiK-5">
          <mxGeometry relative="1" as="geometry" />
        </mxCell>
        <mxCell id="dAyneqLOpH0L9eFf7bT2-23" value="MovieRepository" style="shape=providedRequiredInterface;html=1;verticalLabelPosition=bottom;sketch=0;flipH=0;" vertex="1" parent="HhEyFnEYHEFTAz3jUqiK-1">
          <mxGeometry x="360" y="1290" width="20" height="20" as="geometry" />
        </mxCell>
        <mxCell id="dAyneqLOpH0L9eFf7bT2-24" style="edgeStyle=orthogonalEdgeStyle;rounded=0;orthogonalLoop=1;jettySize=auto;html=1;entryX=1;entryY=0.5;entryDx=0;entryDy=0;entryPerimeter=0;endArrow=none;endFill=0;" edge="1" parent="HhEyFnEYHEFTAz3jUqiK-1" source="dAyneqLOpH0L9eFf7bT2-17" target="dAyneqLOpH0L9eFf7bT2-23">
          <mxGeometry relative="1" as="geometry">
            <Array as="points">
              <mxPoint x="480" y="1248" />
              <mxPoint x="480" y="1300" />
            </Array>
          </mxGeometry>
        </mxCell>
        <mxCell id="dAyneqLOpH0L9eFf7bT2-25" style="edgeStyle=orthogonalEdgeStyle;rounded=0;orthogonalLoop=1;jettySize=auto;html=1;exitX=0;exitY=0.5;exitDx=0;exitDy=0;exitPerimeter=0;entryX=1.011;entryY=0.39;entryDx=0;entryDy=0;entryPerimeter=0;endArrow=none;endFill=0;" edge="1" parent="HhEyFnEYHEFTAz3jUqiK-1" source="dAyneqLOpH0L9eFf7bT2-23" target="dAyneqLOpH0L9eFf7bT2-18">
          <mxGeometry relative="1" as="geometry" />
        </mxCell>
        <mxCell id="dAyneqLOpH0L9eFf7bT2-27" style="edgeStyle=orthogonalEdgeStyle;rounded=0;orthogonalLoop=1;jettySize=auto;html=1;entryX=1.003;entryY=0.851;entryDx=0;entryDy=0;entryPerimeter=0;" edge="1" parent="HhEyFnEYHEFTAz3jUqiK-1" source="dAyneqLOpH0L9eFf7bT2-18" target="kkG6p5Vv7rluTgTEHCD1-0">
          <mxGeometry relative="1" as="geometry" />
        </mxCell>
        <mxCell id="dAyneqLOpH0L9eFf7bT2-29" style="edgeStyle=orthogonalEdgeStyle;rounded=0;orthogonalLoop=1;jettySize=auto;html=1;exitX=0;exitY=0.5;exitDx=0;exitDy=0;exitPerimeter=0;entryX=1;entryY=0.322;entryDx=0;entryDy=0;entryPerimeter=0;endArrow=none;endFill=0;" edge="1" parent="HhEyFnEYHEFTAz3jUqiK-1" source="HhEyFnEYHEFTAz3jUqiK-5" target="dAyneqLOpH0L9eFf7bT2-0">
          <mxGeometry relative="1" as="geometry" />
        </mxCell>
        <mxCell id="dAyneqLOpH0L9eFf7bT2-31" style="edgeStyle=orthogonalEdgeStyle;rounded=0;orthogonalLoop=1;jettySize=auto;html=1;exitX=0;exitY=0.25;exitDx=0;exitDy=0;entryX=1.016;entryY=0.266;entryDx=0;entryDy=0;entryPerimeter=0;" edge="1" parent="HhEyFnEYHEFTAz3jUqiK-1" source="dAyneqLOpH0L9eFf7bT2-0" target="kkG6p5Vv7rluTgTEHCD1-0">
          <mxGeometry relative="1" as="geometry" />
        </mxCell>
        <mxCell id="dAyneqLOpH0L9eFf7bT2-35" value="" style="image;aspect=fixed;html=1;points=[];align=center;fontSize=12;image=img/lib/azure2/containers/Kubernetes_Services.svg;" vertex="1" parent="HhEyFnEYHEFTAz3jUqiK-1">
          <mxGeometry x="72" y="880" width="68" height="60" as="geometry" />
        </mxCell>
      </root>
    </mxGraphModel>
  </diagram>
  <diagram name="AWS Lambda" id="zf4czu86L6KEdxXnlyyQ">
    <mxGraphModel dx="1982" dy="443" grid="1" gridSize="10" guides="1" tooltips="1" connect="1" arrows="1" fold="1" page="1" pageScale="1" pageWidth="1169" pageHeight="827" math="0" shadow="0">
      <root>
        <mxCell id="sbZ4r32R00v6OobyNz5y-0" />
        <mxCell id="sbZ4r32R00v6OobyNz5y-1" parent="sbZ4r32R00v6OobyNz5y-0" />
        <mxCell id="sbZ4r32R00v6OobyNz5y-4" value="BaconNumberFunction" style="rounded=1;whiteSpace=wrap;html=1;arcSize=20;verticalAlign=top;align=left;spacingTop=0;spacingLeft=20;absoluteArcSize=1;" vertex="1" parent="sbZ4r32R00v6OobyNz5y-1">
          <mxGeometry x="120" y="1040" width="530" height="330" as="geometry" />
        </mxCell>
        <mxCell id="sbZ4r32R00v6OobyNz5y-6" value="&lt;div&gt;Core application&lt;/div&gt;" style="rounded=1;whiteSpace=wrap;html=1;align=center;verticalAlign=top;arcSize=20;absoluteArcSize=1;" vertex="1" parent="sbZ4r32R00v6OobyNz5y-1">
          <mxGeometry x="420" y="1160" width="220" height="120" as="geometry" />
        </mxCell>
        <mxCell id="sbZ4r32R00v6OobyNz5y-7" value="&lt;div&gt;AWS specific implementation&lt;/div&gt;" style="rounded=1;whiteSpace=wrap;html=1;verticalAlign=top;arcSize=20;glass=0;shadow=0;absoluteArcSize=1;" vertex="1" parent="sbZ4r32R00v6OobyNz5y-1">
          <mxGeometry x="130" y="1070" width="190" height="290" as="geometry" />
        </mxCell>
        <mxCell id="sbZ4r32R00v6OobyNz5y-8" value="ActorRepository" style="shape=providedRequiredInterface;html=1;verticalLabelPosition=bottom;sketch=0;flipH=0;" vertex="1" parent="sbZ4r32R00v6OobyNz5y-1">
          <mxGeometry x="360" y="1209" width="20" height="20" as="geometry" />
        </mxCell>
        <mxCell id="sbZ4r32R00v6OobyNz5y-9" style="edgeStyle=orthogonalEdgeStyle;rounded=0;orthogonalLoop=1;jettySize=auto;html=1;exitX=0.136;exitY=0.008;exitDx=0;exitDy=0;entryX=1.007;entryY=0.809;entryDx=0;entryDy=0;endArrow=diamondThin;endFill=0;endSize=24;entryPerimeter=0;exitPerimeter=0;" edge="1" parent="sbZ4r32R00v6OobyNz5y-1" source="sbZ4r32R00v6OobyNz5y-16" target="sbZ4r32R00v6OobyNz5y-11">
          <mxGeometry relative="1" as="geometry">
            <mxPoint x="510" y="1042.5" as="sourcePoint" />
            <mxPoint x="340" y="1012.5" as="targetPoint" />
          </mxGeometry>
        </mxCell>
        <mxCell id="sbZ4r32R00v6OobyNz5y-10" value="DynamoDB" style="aspect=fixed;html=1;align=center;fontSize=12;image=img/lib/azure2/databases/Azure_Cosmos_DB.svg;outlineConnect=0;dashed=0;verticalLabelPosition=bottom;verticalAlign=top;shape=mxgraph.aws3.dynamo_db;fillColor=#2E73B8;gradientColor=none;" vertex="1" parent="sbZ4r32R00v6OobyNz5y-1">
          <mxGeometry x="-20" y="1197" width="64" height="64" as="geometry" />
        </mxCell>
        <mxCell id="sbZ4r32R00v6OobyNz5y-11" value="&lt;p style=&quot;margin:0px;margin-top:6px;text-align:center;&quot;&gt;&lt;b&gt;LambdaApplication&lt;br&gt;&lt;/b&gt;&lt;/p&gt;&lt;hr size=&quot;1&quot; style=&quot;border-style:solid;&quot;&gt;&lt;p style=&quot;margin:0px;margin-left:8px;&quot;&gt;invoke(LambdaContext): int&lt;br&gt;&lt;/p&gt;&lt;p style=&quot;margin:0px;margin-left:8px;&quot;&gt;&lt;br&gt;&lt;/p&gt;" style="align=left;overflow=fill;html=1;dropTarget=0;whiteSpace=wrap;" vertex="1" parent="sbZ4r32R00v6OobyNz5y-1">
          <mxGeometry x="140.25" y="1100" width="155" height="90" as="geometry" />
        </mxCell>
        <mxCell id="sbZ4r32R00v6OobyNz5y-12" value="" style="shape=component;jettyWidth=8;jettyHeight=4;" vertex="1" parent="sbZ4r32R00v6OobyNz5y-11">
          <mxGeometry x="1" width="20" height="20" relative="1" as="geometry">
            <mxPoint x="-24" y="4" as="offset" />
          </mxGeometry>
        </mxCell>
        <mxCell id="sbZ4r32R00v6OobyNz5y-13" value="&lt;b&gt;DynamoDbActorRepository&lt;/b&gt;" style="swimlane;fontStyle=0;align=center;verticalAlign=top;childLayout=stackLayout;horizontal=1;startSize=30;horizontalStack=0;resizeParent=1;resizeParentMax=0;resizeLast=0;collapsible=0;marginBottom=0;html=1;whiteSpace=wrap;" vertex="1" parent="sbZ4r32R00v6OobyNz5y-1">
          <mxGeometry x="140" y="1200" width="150" height="58" as="geometry" />
        </mxCell>
        <mxCell id="sbZ4r32R00v6OobyNz5y-14" value="" style="line;strokeWidth=1;fillColor=none;align=left;verticalAlign=middle;spacingTop=-1;spacingLeft=3;spacingRight=3;rotatable=0;labelPosition=right;points=[];portConstraint=eastwest;" vertex="1" parent="sbZ4r32R00v6OobyNz5y-13">
          <mxGeometry y="30" width="150" height="8" as="geometry" />
        </mxCell>
        <mxCell id="sbZ4r32R00v6OobyNz5y-15" value="&lt;div&gt;+ getById(ActorId): Actor&lt;br&gt;&lt;/div&gt;" style="text;html=1;strokeColor=none;fillColor=none;align=left;verticalAlign=middle;spacingLeft=4;spacingRight=4;overflow=hidden;rotatable=0;points=[[0,0.5],[1,0.5]];portConstraint=eastwest;whiteSpace=wrap;" vertex="1" parent="sbZ4r32R00v6OobyNz5y-13">
          <mxGeometry y="38" width="150" height="20" as="geometry" />
        </mxCell>
        <mxCell id="sbZ4r32R00v6OobyNz5y-16" value="ActorService" style="swimlane;fontStyle=0;align=center;verticalAlign=top;childLayout=stackLayout;horizontal=1;startSize=30;horizontalStack=0;resizeParent=1;resizeParentMax=0;resizeLast=0;collapsible=0;marginBottom=0;html=1;whiteSpace=wrap;" vertex="1" parent="sbZ4r32R00v6OobyNz5y-1">
          <mxGeometry x="435" y="1200" width="190" height="58" as="geometry" />
        </mxCell>
        <mxCell id="sbZ4r32R00v6OobyNz5y-17" value="" style="line;strokeWidth=1;fillColor=none;align=left;verticalAlign=middle;spacingTop=-1;spacingLeft=3;spacingRight=3;rotatable=0;labelPosition=right;points=[];portConstraint=eastwest;" vertex="1" parent="sbZ4r32R00v6OobyNz5y-16">
          <mxGeometry y="30" width="190" height="8" as="geometry" />
        </mxCell>
        <mxCell id="sbZ4r32R00v6OobyNz5y-18" value="calculateBaconNumber(ActorId)" style="text;html=1;strokeColor=none;fillColor=none;align=left;verticalAlign=middle;spacingLeft=4;spacingRight=4;overflow=hidden;rotatable=0;points=[[0,0.5],[1,0.5]];portConstraint=eastwest;whiteSpace=wrap;" vertex="1" parent="sbZ4r32R00v6OobyNz5y-16">
          <mxGeometry y="38" width="190" height="20" as="geometry" />
        </mxCell>
        <mxCell id="sbZ4r32R00v6OobyNz5y-19" value="&lt;b&gt;DynamoDbMovieRepository&lt;/b&gt;" style="swimlane;fontStyle=0;align=center;verticalAlign=top;childLayout=stackLayout;horizontal=1;startSize=30;horizontalStack=0;resizeParent=1;resizeParentMax=0;resizeLast=0;collapsible=0;marginBottom=0;html=1;whiteSpace=wrap;" vertex="1" parent="sbZ4r32R00v6OobyNz5y-1">
          <mxGeometry x="140" y="1270" width="170" height="78" as="geometry" />
        </mxCell>
        <mxCell id="sbZ4r32R00v6OobyNz5y-20" value="" style="line;strokeWidth=1;fillColor=none;align=left;verticalAlign=middle;spacingTop=-1;spacingLeft=3;spacingRight=3;rotatable=0;labelPosition=right;points=[];portConstraint=eastwest;" vertex="1" parent="sbZ4r32R00v6OobyNz5y-19">
          <mxGeometry y="30" width="170" height="8" as="geometry" />
        </mxCell>
        <mxCell id="sbZ4r32R00v6OobyNz5y-21" value="&lt;div&gt;+ getByActor(ActorId): Movie[]&lt;br&gt;&lt;/div&gt;" style="text;html=1;strokeColor=none;fillColor=none;align=left;verticalAlign=middle;spacingLeft=4;spacingRight=4;overflow=hidden;rotatable=0;points=[[0,0.5],[1,0.5]];portConstraint=eastwest;whiteSpace=wrap;" vertex="1" parent="sbZ4r32R00v6OobyNz5y-19">
          <mxGeometry y="38" width="170" height="20" as="geometry" />
        </mxCell>
        <mxCell id="sbZ4r32R00v6OobyNz5y-22" value="&lt;div&gt;+ save(User)&lt;br&gt;&lt;/div&gt;" style="text;html=1;strokeColor=none;fillColor=none;align=left;verticalAlign=middle;spacingLeft=4;spacingRight=4;overflow=hidden;rotatable=0;points=[[0,0.5],[1,0.5]];portConstraint=eastwest;whiteSpace=wrap;" vertex="1" parent="sbZ4r32R00v6OobyNz5y-19">
          <mxGeometry y="58" width="170" height="20" as="geometry" />
        </mxCell>
        <mxCell id="sbZ4r32R00v6OobyNz5y-23" style="edgeStyle=orthogonalEdgeStyle;rounded=0;orthogonalLoop=1;jettySize=auto;html=1;exitX=-0.004;exitY=0.333;exitDx=0;exitDy=0;entryX=1;entryY=0.5;entryDx=0;entryDy=0;entryPerimeter=0;endArrow=none;endFill=0;exitPerimeter=0;" edge="1" parent="sbZ4r32R00v6OobyNz5y-1" source="sbZ4r32R00v6OobyNz5y-16" target="sbZ4r32R00v6OobyNz5y-8">
          <mxGeometry relative="1" as="geometry" />
        </mxCell>
        <mxCell id="sbZ4r32R00v6OobyNz5y-24" value="MovieRepository" style="shape=providedRequiredInterface;html=1;verticalLabelPosition=bottom;sketch=0;flipH=0;" vertex="1" parent="sbZ4r32R00v6OobyNz5y-1">
          <mxGeometry x="360" y="1290" width="20" height="20" as="geometry" />
        </mxCell>
        <mxCell id="sbZ4r32R00v6OobyNz5y-25" style="edgeStyle=orthogonalEdgeStyle;rounded=0;orthogonalLoop=1;jettySize=auto;html=1;entryX=1;entryY=0.5;entryDx=0;entryDy=0;entryPerimeter=0;endArrow=none;endFill=0;" edge="1" parent="sbZ4r32R00v6OobyNz5y-1" source="sbZ4r32R00v6OobyNz5y-18" target="sbZ4r32R00v6OobyNz5y-24">
          <mxGeometry relative="1" as="geometry">
            <Array as="points">
              <mxPoint x="480" y="1248" />
              <mxPoint x="480" y="1300" />
            </Array>
          </mxGeometry>
        </mxCell>
        <mxCell id="sbZ4r32R00v6OobyNz5y-26" style="edgeStyle=orthogonalEdgeStyle;rounded=0;orthogonalLoop=1;jettySize=auto;html=1;exitX=0;exitY=0.5;exitDx=0;exitDy=0;exitPerimeter=0;entryX=1.011;entryY=0.39;entryDx=0;entryDy=0;entryPerimeter=0;endArrow=none;endFill=0;" edge="1" parent="sbZ4r32R00v6OobyNz5y-1" source="sbZ4r32R00v6OobyNz5y-24" target="sbZ4r32R00v6OobyNz5y-19">
          <mxGeometry relative="1" as="geometry" />
        </mxCell>
        <mxCell id="sbZ4r32R00v6OobyNz5y-27" style="edgeStyle=orthogonalEdgeStyle;rounded=0;orthogonalLoop=1;jettySize=auto;html=1;entryX=1.003;entryY=0.851;entryDx=0;entryDy=0;entryPerimeter=0;" edge="1" parent="sbZ4r32R00v6OobyNz5y-1" source="sbZ4r32R00v6OobyNz5y-19" target="sbZ4r32R00v6OobyNz5y-10">
          <mxGeometry relative="1" as="geometry" />
        </mxCell>
        <mxCell id="sbZ4r32R00v6OobyNz5y-28" style="edgeStyle=orthogonalEdgeStyle;rounded=0;orthogonalLoop=1;jettySize=auto;html=1;exitX=0;exitY=0.5;exitDx=0;exitDy=0;exitPerimeter=0;entryX=1;entryY=0.322;entryDx=0;entryDy=0;entryPerimeter=0;endArrow=none;endFill=0;" edge="1" parent="sbZ4r32R00v6OobyNz5y-1" source="sbZ4r32R00v6OobyNz5y-8" target="sbZ4r32R00v6OobyNz5y-13">
          <mxGeometry relative="1" as="geometry" />
        </mxCell>
        <mxCell id="sbZ4r32R00v6OobyNz5y-29" style="edgeStyle=orthogonalEdgeStyle;rounded=0;orthogonalLoop=1;jettySize=auto;html=1;exitX=0;exitY=0.25;exitDx=0;exitDy=0;entryX=1.016;entryY=0.266;entryDx=0;entryDy=0;entryPerimeter=0;" edge="1" parent="sbZ4r32R00v6OobyNz5y-1" source="sbZ4r32R00v6OobyNz5y-13" target="sbZ4r32R00v6OobyNz5y-10">
          <mxGeometry relative="1" as="geometry" />
        </mxCell>
        <mxCell id="OlWn_FhEUqmZMGqIutOZ-0" value="" style="outlineConnect=0;dashed=0;verticalLabelPosition=bottom;verticalAlign=top;align=center;html=1;shape=mxgraph.aws3.lambda_function;fillColor=#F58534;gradientColor=none;" vertex="1" parent="sbZ4r32R00v6OobyNz5y-1">
          <mxGeometry x="100" y="1020" width="40.25" height="42" as="geometry" />
        </mxCell>
      </root>
    </mxGraphModel>
  </diagram>
</mxfile>
